<svg width="165" height="52" viewBox="0 0 165 52" fill="none" xmlns="http://www.w3.org/2000/svg">
<g clip-path="url(#clip0_0_27)">
<path d="M16.25 55.33V49.35C12.9567 49.0467 10.1833 48.2883 7.93 47.075C5.67667 45.8617 3.72667 44.345 2.08 42.525L7.93 37.195C9.18667 38.495 10.5733 39.5783 12.09 40.445C13.6067 41.2683 15.275 41.81 17.095 42.07V30.37C12.1983 29.3733 8.68833 27.8133 6.565 25.69C4.44167 23.5667 3.38 20.9233 3.38 17.76C3.38 14.3367 4.46333 11.5417 6.63 9.375C8.84 7.20833 12.0467 5.88667 16.25 5.41V-0.700002H23.66V5.41C26.26 5.71333 28.535 6.36333 30.485 7.36C32.435 8.31333 34.125 9.61333 35.555 11.26L29.64 16.59C28.86 15.7233 27.9283 14.9433 26.845 14.25C25.7617 13.5567 24.44 13.0367 22.88 12.69V23.48C27.4733 24.52 30.8533 26.015 33.02 27.965C35.23 29.915 36.335 32.5583 36.335 35.895C36.335 39.1017 35.295 41.9183 33.215 44.345C31.1783 46.7717 27.9933 48.3533 23.66 49.09V55.33H16.25ZM12.35 17.5C12.35 18.7567 12.7183 19.7317 13.455 20.425C14.235 21.1183 15.4483 21.7033 17.095 22.18V12.56C15.4483 12.9067 14.235 13.5133 13.455 14.38C12.7183 15.2033 12.35 16.2433 12.35 17.5ZM27.365 36.61C27.365 35.6567 27.0833 34.7467 26.52 33.88C25.9567 32.97 24.7433 32.2333 22.88 31.67V41.94C24.3967 41.5067 25.5233 40.835 26.26 39.925C26.9967 38.9717 27.365 37.8667 27.365 36.61ZM60.9431 50V41.29H40.9881V32.97L58.6681 4.63H70.2381V33.75H75.9581V41.29H70.2381V50H60.9431ZM48.7881 33.75H60.9431V14.705H60.2931L48.7881 33.75Z" fill="#FCFAF9"/>
<path d="M95.18 36.02L100.4 18.2H101.84L96.62 36.02H95.18ZM108.683 33V22.68H110.283V24.36H110.363C110.483 24.0933 110.616 23.8467 110.763 23.62C110.923 23.38 111.109 23.1733 111.323 23C111.549 22.8267 111.809 22.6933 112.103 22.6C112.396 22.4933 112.743 22.44 113.143 22.44C113.823 22.44 114.449 22.6067 115.023 22.94C115.596 23.26 116.023 23.7933 116.303 24.54H116.343C116.529 23.98 116.876 23.4933 117.383 23.08C117.903 22.6533 118.603 22.44 119.483 22.44C120.536 22.44 121.356 22.7867 121.943 23.48C122.543 24.16 122.843 25.1267 122.843 26.38V33H121.243V26.66C121.243 25.74 121.063 25.0467 120.703 24.58C120.343 24.1133 119.769 23.88 118.983 23.88C118.663 23.88 118.356 23.92 118.063 24C117.783 24.08 117.529 24.2 117.303 24.36C117.076 24.52 116.896 24.7267 116.763 24.98C116.629 25.22 116.563 25.5067 116.563 25.84V33H114.963V26.66C114.963 25.74 114.783 25.0467 114.423 24.58C114.063 24.1133 113.503 23.88 112.743 23.88C112.423 23.88 112.116 23.92 111.823 24C111.529 24.08 111.269 24.2 111.043 24.36C110.816 24.52 110.629 24.7267 110.483 24.98C110.349 25.22 110.283 25.5067 110.283 25.84V33H108.683ZM129.844 33.24C129.15 33.24 128.517 33.1133 127.944 32.86C127.37 32.6067 126.877 32.2467 126.464 31.78C126.064 31.3 125.75 30.7333 125.524 30.08C125.297 29.4133 125.184 28.6667 125.184 27.84C125.184 27.0267 125.297 26.2867 125.524 25.62C125.75 24.9533 126.064 24.3867 126.464 23.92C126.877 23.44 127.37 23.0733 127.944 22.82C128.517 22.5667 129.15 22.44 129.844 22.44C130.537 22.44 131.164 22.5667 131.724 22.82C132.297 23.0733 132.79 23.44 133.204 23.92C133.617 24.3867 133.937 24.9533 134.164 25.62C134.39 26.2867 134.504 27.0267 134.504 27.84C134.504 28.6667 134.39 29.4133 134.164 30.08C133.937 30.7333 133.617 31.3 133.204 31.78C132.79 32.2467 132.297 32.6067 131.724 32.86C131.164 33.1133 130.537 33.24 129.844 33.24ZM129.844 31.82C130.71 31.82 131.417 31.5533 131.964 31.02C132.51 30.4867 132.784 29.6733 132.784 28.58V27.1C132.784 26.0067 132.51 25.1933 131.964 24.66C131.417 24.1267 130.71 23.86 129.844 23.86C128.977 23.86 128.27 24.1267 127.724 24.66C127.177 25.1933 126.904 26.0067 126.904 27.1V28.58C126.904 29.6733 127.177 30.4867 127.724 31.02C128.27 31.5533 128.977 31.82 129.844 31.82ZM136.935 33V22.68H138.535V24.36H138.615C138.868 23.7733 139.222 23.3067 139.675 22.96C140.142 22.6133 140.762 22.44 141.535 22.44C142.602 22.44 143.442 22.7867 144.055 23.48C144.682 24.16 144.995 25.1267 144.995 26.38V33H143.395V26.66C143.395 24.8067 142.615 23.88 141.055 23.88C140.735 23.88 140.422 23.92 140.115 24C139.822 24.08 139.555 24.2 139.315 24.36C139.075 24.52 138.882 24.7267 138.735 24.98C138.602 25.22 138.535 25.5067 138.535 25.84V33H136.935ZM150.382 33C149.822 33 149.396 32.8467 149.102 32.54C148.822 32.22 148.682 31.8067 148.682 31.3V24.08H146.982V22.68H147.942C148.289 22.68 148.522 22.6133 148.642 22.48C148.776 22.3333 148.842 22.0867 148.842 21.74V19.82H150.282V22.68H152.542V24.08H150.282V31.6H152.382V33H150.382ZM154.914 18.2H156.514V24.36H156.594C156.847 23.7733 157.201 23.3067 157.654 22.96C158.121 22.6133 158.741 22.44 159.514 22.44C160.581 22.44 161.421 22.7867 162.034 23.48C162.661 24.16 162.974 25.1267 162.974 26.38V33H161.374V26.66C161.374 24.8067 160.594 23.88 159.034 23.88C158.714 23.88 158.401 23.92 158.094 24C157.801 24.08 157.534 24.2 157.294 24.36C157.054 24.52 156.861 24.7267 156.714 24.98C156.581 25.22 156.514 25.5067 156.514 25.84V33H154.914V18.2Z" fill="#FCFAF9"/>
</g>
<defs>
<clipPath id="clip0_0_27">
<rect width="165" height="52" fill="white"/>
</clipPath>
</defs>
</svg>
