<svg width="296" height="61" viewBox="0 0 296 61" fill="none" xmlns="http://www.w3.org/2000/svg">
<rect width="296" height="61" rx="12" fill="#FCFAF9"/>
<g clip-path="url(#clip0_0_39)">
<path d="M93.0248 38L92.1248 35.012H87.9308L87.0308 38H84.2588L88.3988 25.436H91.7828L95.8688 38H93.0248ZM90.0548 27.92H89.9648L88.5788 32.69H91.4588L90.0548 27.92ZM97.2831 38V28.55H99.9471V30.152H100.055C100.223 29.66 100.517 29.234 100.937 28.874C101.357 28.514 101.939 28.334 102.683 28.334C103.655 28.334 104.387 28.658 104.879 29.306C105.383 29.954 105.635 30.878 105.635 32.078V38H102.971V32.294C102.971 31.682 102.875 31.232 102.683 30.944C102.491 30.644 102.149 30.494 101.657 30.494C101.441 30.494 101.231 30.524 101.027 30.584C100.823 30.632 100.637 30.716 100.469 30.836C100.313 30.956 100.187 31.106 100.091 31.286C99.9951 31.454 99.9471 31.652 99.9471 31.88V38H97.2831ZM113.622 36.416H113.532C113.46 36.668 113.346 36.908 113.19 37.136C113.034 37.352 112.842 37.544 112.614 37.712C112.398 37.868 112.146 37.988 111.858 38.072C111.582 38.168 111.294 38.216 110.994 38.216C109.794 38.216 108.888 37.796 108.276 36.956C107.664 36.104 107.358 34.874 107.358 33.266C107.358 31.658 107.664 30.434 108.276 29.594C108.888 28.754 109.794 28.334 110.994 28.334C111.606 28.334 112.146 28.502 112.614 28.838C113.094 29.174 113.4 29.606 113.532 30.134H113.622V24.68H116.286V38H113.622V36.416ZM111.876 36.056C112.38 36.056 112.794 35.936 113.118 35.696C113.454 35.444 113.622 35.102 113.622 34.67V31.88C113.622 31.448 113.454 31.112 113.118 30.872C112.794 30.62 112.38 30.494 111.876 30.494C111.372 30.494 110.952 30.674 110.616 31.034C110.292 31.382 110.13 31.856 110.13 32.456V34.094C110.13 34.694 110.292 35.174 110.616 35.534C110.952 35.882 111.372 36.056 111.876 36.056ZM118.597 38V28.55H121.261V30.602H121.351C121.399 30.338 121.483 30.086 121.603 29.846C121.723 29.594 121.879 29.372 122.071 29.18C122.275 28.988 122.515 28.838 122.791 28.73C123.067 28.61 123.391 28.55 123.763 28.55H124.231V31.034H123.565C122.785 31.034 122.203 31.136 121.819 31.34C121.447 31.544 121.261 31.922 121.261 32.474V38H118.597ZM129.44 38.216C128.744 38.216 128.12 38.102 127.568 37.874C127.028 37.646 126.566 37.316 126.182 36.884C125.81 36.452 125.522 35.93 125.318 35.318C125.114 34.706 125.012 34.022 125.012 33.266C125.012 32.51 125.114 31.826 125.318 31.214C125.522 30.602 125.81 30.086 126.182 29.666C126.566 29.234 127.028 28.904 127.568 28.676C128.12 28.448 128.744 28.334 129.44 28.334C130.136 28.334 130.754 28.448 131.294 28.676C131.846 28.904 132.308 29.234 132.68 29.666C133.064 30.086 133.358 30.602 133.562 31.214C133.766 31.826 133.868 32.51 133.868 33.266C133.868 34.022 133.766 34.706 133.562 35.318C133.358 35.93 133.064 36.452 132.68 36.884C132.308 37.316 131.846 37.646 131.294 37.874C130.754 38.102 130.136 38.216 129.44 38.216ZM129.44 36.11C129.968 36.11 130.376 35.948 130.664 35.624C130.952 35.3 131.096 34.838 131.096 34.238V32.312C131.096 31.712 130.952 31.25 130.664 30.926C130.376 30.602 129.968 30.44 129.44 30.44C128.912 30.44 128.504 30.602 128.216 30.926C127.928 31.25 127.784 31.712 127.784 32.312V34.238C127.784 34.838 127.928 35.3 128.216 35.624C128.504 35.948 128.912 36.11 129.44 36.11ZM136.919 27.542C136.379 27.542 135.983 27.422 135.731 27.182C135.491 26.93 135.371 26.612 135.371 26.228V25.832C135.371 25.448 135.491 25.136 135.731 24.896C135.983 24.644 136.379 24.518 136.919 24.518C137.459 24.518 137.849 24.644 138.089 24.896C138.341 25.136 138.467 25.448 138.467 25.832V26.228C138.467 26.612 138.341 26.93 138.089 27.182C137.849 27.422 137.459 27.542 136.919 27.542ZM135.587 28.55H138.251V38H135.587V28.55ZM146.353 36.416H146.263C146.191 36.668 146.077 36.908 145.921 37.136C145.765 37.352 145.573 37.544 145.345 37.712C145.129 37.868 144.877 37.988 144.589 38.072C144.313 38.168 144.025 38.216 143.725 38.216C142.525 38.216 141.619 37.796 141.007 36.956C140.395 36.104 140.089 34.874 140.089 33.266C140.089 31.658 140.395 30.434 141.007 29.594C141.619 28.754 142.525 28.334 143.725 28.334C144.337 28.334 144.877 28.502 145.345 28.838C145.825 29.174 146.131 29.606 146.263 30.134H146.353V24.68H149.017V38H146.353V36.416ZM144.607 36.056C145.111 36.056 145.525 35.936 145.849 35.696C146.185 35.444 146.353 35.102 146.353 34.67V31.88C146.353 31.448 146.185 31.112 145.849 30.872C145.525 30.62 145.111 30.494 144.607 30.494C144.103 30.494 143.683 30.674 143.347 31.034C143.023 31.382 142.861 31.856 142.861 32.456V34.094C142.861 34.694 143.023 35.174 143.347 35.534C143.683 35.882 144.103 36.056 144.607 36.056ZM155.546 25.436H160.28C161.108 25.436 161.864 25.568 162.548 25.832C163.232 26.096 163.814 26.492 164.294 27.02C164.774 27.536 165.146 28.19 165.41 28.982C165.674 29.762 165.806 30.674 165.806 31.718C165.806 32.762 165.674 33.68 165.41 34.472C165.146 35.252 164.774 35.906 164.294 36.434C163.814 36.95 163.232 37.34 162.548 37.604C161.864 37.868 161.108 38 160.28 38H155.546V25.436ZM160.28 35.57C161.096 35.57 161.738 35.342 162.206 34.886C162.674 34.43 162.908 33.698 162.908 32.69V30.746C162.908 29.738 162.674 29.006 162.206 28.55C161.738 28.094 161.096 27.866 160.28 27.866H158.282V35.57H160.28ZM171.607 38.216C170.911 38.216 170.287 38.102 169.735 37.874C169.195 37.646 168.733 37.316 168.349 36.884C167.977 36.452 167.689 35.93 167.485 35.318C167.281 34.706 167.179 34.022 167.179 33.266C167.179 32.51 167.281 31.826 167.485 31.214C167.689 30.602 167.977 30.086 168.349 29.666C168.733 29.234 169.195 28.904 169.735 28.676C170.287 28.448 170.911 28.334 171.607 28.334C172.303 28.334 172.921 28.448 173.461 28.676C174.013 28.904 174.475 29.234 174.847 29.666C175.231 30.086 175.525 30.602 175.729 31.214C175.933 31.826 176.035 32.51 176.035 33.266C176.035 34.022 175.933 34.706 175.729 35.318C175.525 35.93 175.231 36.452 174.847 36.884C174.475 37.316 174.013 37.646 173.461 37.874C172.921 38.102 172.303 38.216 171.607 38.216ZM171.607 36.11C172.135 36.11 172.543 35.948 172.831 35.624C173.119 35.3 173.263 34.838 173.263 34.238V32.312C173.263 31.712 173.119 31.25 172.831 30.926C172.543 30.602 172.135 30.44 171.607 30.44C171.079 30.44 170.671 30.602 170.383 30.926C170.095 31.25 169.951 31.712 169.951 32.312V34.238C169.951 34.838 170.095 35.3 170.383 35.624C170.671 35.948 171.079 36.11 171.607 36.11ZM176.677 28.55H179.251L180.169 32.366L180.817 35.246H180.889L181.645 32.366L182.725 28.55H185.155L186.253 32.366L187.027 35.246H187.099L187.747 32.366L188.665 28.55H191.131L188.521 38H185.731L184.579 34.004L183.913 31.556H183.859L183.211 34.004L182.059 38H179.323L176.677 28.55ZM192.532 38V28.55H195.196V30.152H195.304C195.472 29.66 195.766 29.234 196.186 28.874C196.606 28.514 197.188 28.334 197.932 28.334C198.904 28.334 199.636 28.658 200.128 29.306C200.632 29.954 200.884 30.878 200.884 32.078V38H198.22V32.294C198.22 31.682 198.124 31.232 197.932 30.944C197.74 30.644 197.398 30.494 196.906 30.494C196.69 30.494 196.48 30.524 196.276 30.584C196.072 30.632 195.886 30.716 195.718 30.836C195.562 30.956 195.436 31.106 195.34 31.286C195.244 31.454 195.196 31.652 195.196 31.88V38H192.532ZM205.721 38C204.809 38 204.137 37.778 203.705 37.334C203.285 36.89 203.075 36.248 203.075 35.408V24.68H205.739V35.93H206.927V38H205.721ZM212.178 38.216C211.482 38.216 210.858 38.102 210.306 37.874C209.766 37.646 209.304 37.316 208.92 36.884C208.548 36.452 208.26 35.93 208.056 35.318C207.852 34.706 207.75 34.022 207.75 33.266C207.75 32.51 207.852 31.826 208.056 31.214C208.26 30.602 208.548 30.086 208.92 29.666C209.304 29.234 209.766 28.904 210.306 28.676C210.858 28.448 211.482 28.334 212.178 28.334C212.874 28.334 213.492 28.448 214.032 28.676C214.584 28.904 215.046 29.234 215.418 29.666C215.802 30.086 216.096 30.602 216.3 31.214C216.504 31.826 216.606 32.51 216.606 33.266C216.606 34.022 216.504 34.706 216.3 35.318C216.096 35.93 215.802 36.452 215.418 36.884C215.046 37.316 214.584 37.646 214.032 37.874C213.492 38.102 212.874 38.216 212.178 38.216ZM212.178 36.11C212.706 36.11 213.114 35.948 213.402 35.624C213.69 35.3 213.834 34.838 213.834 34.238V32.312C213.834 31.712 213.69 31.25 213.402 30.926C213.114 30.602 212.706 30.44 212.178 30.44C211.65 30.44 211.242 30.602 210.954 30.926C210.666 31.25 210.522 31.712 210.522 32.312V34.238C210.522 34.838 210.666 35.3 210.954 35.624C211.242 35.948 211.65 36.11 212.178 36.11ZM225.308 38C224.828 38 224.426 37.85 224.102 37.55C223.79 37.25 223.592 36.848 223.508 36.344H223.4C223.256 36.956 222.938 37.424 222.446 37.748C221.954 38.06 221.348 38.216 220.628 38.216C219.68 38.216 218.954 37.964 218.45 37.46C217.946 36.956 217.694 36.29 217.694 35.462C217.694 34.466 218.054 33.728 218.774 33.248C219.506 32.756 220.496 32.51 221.744 32.51H223.238V31.916C223.238 31.46 223.118 31.1 222.878 30.836C222.638 30.56 222.236 30.422 221.672 30.422C221.144 30.422 220.724 30.536 220.412 30.764C220.1 30.992 219.842 31.25 219.638 31.538L218.054 30.134C218.438 29.57 218.918 29.132 219.494 28.82C220.082 28.496 220.874 28.334 221.87 28.334C223.214 28.334 224.222 28.628 224.894 29.216C225.566 29.804 225.902 30.662 225.902 31.79V35.93H226.784V38H225.308ZM221.618 36.362C222.062 36.362 222.44 36.266 222.752 36.074C223.076 35.882 223.238 35.57 223.238 35.138V34.022H221.942C220.898 34.022 220.376 34.376 220.376 35.084V35.354C220.376 35.702 220.484 35.96 220.7 36.128C220.916 36.284 221.222 36.362 221.618 36.362ZM234.188 36.416H234.098C234.026 36.668 233.912 36.908 233.756 37.136C233.6 37.352 233.408 37.544 233.18 37.712C232.964 37.868 232.712 37.988 232.424 38.072C232.148 38.168 231.86 38.216 231.56 38.216C230.36 38.216 229.454 37.796 228.842 36.956C228.23 36.104 227.924 34.874 227.924 33.266C227.924 31.658 228.23 30.434 228.842 29.594C229.454 28.754 230.36 28.334 231.56 28.334C232.172 28.334 232.712 28.502 233.18 28.838C233.66 29.174 233.966 29.606 234.098 30.134H234.188V24.68H236.852V38H234.188V36.416ZM232.442 36.056C232.946 36.056 233.36 35.936 233.684 35.696C234.02 35.444 234.188 35.102 234.188 34.67V31.88C234.188 31.448 234.02 31.112 233.684 30.872C233.36 30.62 232.946 30.494 232.442 30.494C231.938 30.494 231.518 30.674 231.182 31.034C230.858 31.382 230.696 31.856 230.696 32.456V34.094C230.696 34.694 230.858 35.174 231.182 35.534C231.518 35.882 231.938 36.056 232.442 36.056Z" fill="#191826"/>
<path fill-rule="evenodd" clip-rule="evenodd" d="M70.7761 22.1261C70.9432 21.958 71.192 21.958 71.3591 22.1261C71.5264 22.2934 71.5264 22.5416 71.3591 22.7088L70.2745 23.7934C70.6239 24.0268 70.9409 24.3123 71.2164 24.6388C71.8761 25.4206 72.297 26.4384 72.3547 27.541L72.3558 27.5561C72.3563 27.5625 72.3567 27.5689 72.357 27.5753C72.3605 27.6504 72.3623 27.7259 72.3623 27.8017H62.3395C62.3395 27.7259 62.3412 27.6504 62.3447 27.5753C62.345 27.5696 62.3454 27.5639 62.3458 27.5582L62.3458 27.5582C62.3462 27.5525 62.3466 27.5468 62.3469 27.541C62.4048 26.4384 62.8255 25.4207 63.4853 24.6387C63.7608 24.3122 64.0777 24.0267 64.4271 23.7934L63.3426 22.7087C63.1754 22.5416 63.1754 22.2934 63.3426 22.1261C63.5097 21.958 63.7584 21.958 63.9257 22.1261L65.0467 23.2435L65.0986 23.2952C65.7633 22.9623 66.5086 22.796 67.3386 22.7944L67.3508 22.7943H67.351L67.3631 22.7944C68.1931 22.796 68.9385 22.9623 69.6032 23.2952L69.655 23.2435L70.7761 22.1261ZM64.6354 25.716C64.6354 26.0618 64.9158 26.3422 65.2616 26.3422C65.6074 26.3422 65.8878 26.0618 65.8878 25.716C65.8878 25.3701 65.6074 25.0898 65.2616 25.0898C64.9158 25.0898 64.6354 25.3701 64.6354 25.716ZM69.4401 26.3422C69.0943 26.3422 68.8139 26.0618 68.8139 25.716C68.8139 25.3701 69.0943 25.0898 69.4401 25.0898C69.786 25.0898 70.0663 25.3701 70.0663 25.716C70.0663 26.0618 69.786 26.3422 69.4401 26.3422ZM60.2517 36.9886C60.9205 36.9886 61.5036 36.4055 61.5036 35.7367V29.8895C61.5036 29.2243 60.9206 28.6381 60.2517 28.6381C59.583 28.6381 59 29.2243 59 29.8895V35.7367C59 36.4054 59.583 36.9886 60.2517 36.9886ZM70.6905 40.7481C70.6905 41.4168 70.1073 41.9999 69.4386 41.9999C68.7699 41.9999 68.1867 41.4168 68.1868 40.7481V37.8245H66.5149V40.7481C66.5149 41.4168 65.9319 42 65.2632 42C64.5944 42 64.0113 41.4168 64.0113 40.7481V37.8245H63.1754C62.6739 37.8245 62.3395 37.4901 62.3395 36.9886V28.6381H72.3623V36.9885C72.3623 37.49 72.028 37.8244 71.5264 37.8244H70.6905V40.7481ZM75.7018 35.7367C75.7018 36.4055 75.1188 36.9886 74.4501 36.9886C73.7812 36.9886 73.1982 36.4054 73.1982 35.7367V29.8895C73.1982 29.2243 73.7813 28.6381 74.4501 28.6381C75.1188 28.6381 75.7018 29.2243 75.7018 29.8895V35.7367Z" fill="#191826"/>
</g>
<defs>
<clipPath id="clip0_0_39">
<rect width="178.5" height="32" fill="white" transform="translate(59 15)"/>
</clipPath>
</defs>
</svg>
