<svg width="296" height="61" viewBox="0 0 296 61" fill="none" xmlns="http://www.w3.org/2000/svg">
<rect width="296" height="61" rx="12" fill="#191826"/>
<g clip-path="url(#clip0_0_32)">
<path d="M104.755 27.542C104.215 27.542 103.819 27.422 103.567 27.182C103.327 26.93 103.207 26.612 103.207 26.228V25.832C103.207 25.448 103.327 25.136 103.567 24.896C103.819 24.644 104.215 24.518 104.755 24.518C105.295 24.518 105.685 24.644 105.925 24.896C106.177 25.136 106.303 25.448 106.303 25.832V26.228C106.303 26.612 106.177 26.93 105.925 27.182C105.685 27.422 105.295 27.542 104.755 27.542ZM103.423 28.55H106.087V38H103.423V28.55ZM113.578 38.216C112.75 38.216 111.994 38.078 111.31 37.802C110.626 37.526 110.044 37.118 109.564 36.578C109.084 36.026 108.712 35.348 108.448 34.544C108.184 33.728 108.052 32.786 108.052 31.718C108.052 30.65 108.184 29.714 108.448 28.91C108.712 28.094 109.084 27.416 109.564 26.876C110.044 26.324 110.626 25.91 111.31 25.634C111.994 25.358 112.75 25.22 113.578 25.22C114.406 25.22 115.162 25.358 115.846 25.634C116.53 25.91 117.112 26.324 117.592 26.876C118.072 27.416 118.444 28.094 118.708 28.91C118.972 29.714 119.104 30.65 119.104 31.718C119.104 32.786 118.972 33.728 118.708 34.544C118.444 35.348 118.072 36.026 117.592 36.578C117.112 37.118 116.53 37.526 115.846 37.802C115.162 38.078 114.406 38.216 113.578 38.216ZM113.578 35.786C114.406 35.786 115.048 35.516 115.504 34.976C115.972 34.436 116.206 33.662 116.206 32.654V30.782C116.206 29.774 115.972 29 115.504 28.46C115.048 27.92 114.406 27.65 113.578 27.65C112.75 27.65 112.102 27.92 111.634 28.46C111.178 29 110.95 29.774 110.95 30.782V32.654C110.95 33.662 111.178 34.436 111.634 34.976C112.102 35.516 112.75 35.786 113.578 35.786ZM125.205 38.216C124.101 38.216 123.165 38.03 122.397 37.658C121.629 37.274 120.975 36.782 120.435 36.182L122.235 34.364C123.087 35.324 124.137 35.804 125.385 35.804C126.057 35.804 126.555 35.666 126.879 35.39C127.203 35.114 127.365 34.748 127.365 34.292C127.365 33.944 127.269 33.656 127.077 33.428C126.885 33.188 126.495 33.026 125.907 32.942L124.665 32.78C123.333 32.612 122.355 32.21 121.731 31.574C121.119 30.938 120.813 30.092 120.813 29.036C120.813 28.472 120.921 27.956 121.137 27.488C121.353 27.02 121.659 26.618 122.055 26.282C122.463 25.946 122.955 25.688 123.531 25.508C124.119 25.316 124.785 25.22 125.529 25.22C126.477 25.22 127.311 25.37 128.031 25.67C128.751 25.97 129.369 26.408 129.885 26.984L128.067 28.82C127.767 28.472 127.401 28.19 126.969 27.974C126.549 27.746 126.015 27.632 125.367 27.632C124.755 27.632 124.299 27.74 123.999 27.956C123.699 28.172 123.549 28.472 123.549 28.856C123.549 29.288 123.663 29.6 123.891 29.792C124.131 29.984 124.515 30.122 125.043 30.206L126.285 30.404C127.581 30.608 128.541 31.01 129.165 31.61C129.789 32.198 130.101 33.038 130.101 34.13C130.101 34.73 129.993 35.282 129.777 35.786C129.561 36.29 129.243 36.722 128.823 37.082C128.415 37.442 127.905 37.724 127.293 37.928C126.681 38.12 125.985 38.216 125.205 38.216ZM136.263 25.436H140.997C141.825 25.436 142.581 25.568 143.265 25.832C143.949 26.096 144.531 26.492 145.011 27.02C145.491 27.536 145.863 28.19 146.127 28.982C146.391 29.762 146.523 30.674 146.523 31.718C146.523 32.762 146.391 33.68 146.127 34.472C145.863 35.252 145.491 35.906 145.011 36.434C144.531 36.95 143.949 37.34 143.265 37.604C142.581 37.868 141.825 38 140.997 38H136.263V25.436ZM140.997 35.57C141.813 35.57 142.455 35.342 142.923 34.886C143.391 34.43 143.625 33.698 143.625 32.69V30.746C143.625 29.738 143.391 29.006 142.923 28.55C142.455 28.094 141.813 27.866 140.997 27.866H138.999V35.57H140.997ZM152.324 38.216C151.628 38.216 151.004 38.102 150.452 37.874C149.912 37.646 149.45 37.316 149.066 36.884C148.694 36.452 148.406 35.93 148.202 35.318C147.998 34.706 147.896 34.022 147.896 33.266C147.896 32.51 147.998 31.826 148.202 31.214C148.406 30.602 148.694 30.086 149.066 29.666C149.45 29.234 149.912 28.904 150.452 28.676C151.004 28.448 151.628 28.334 152.324 28.334C153.02 28.334 153.638 28.448 154.178 28.676C154.73 28.904 155.192 29.234 155.564 29.666C155.948 30.086 156.242 30.602 156.446 31.214C156.65 31.826 156.752 32.51 156.752 33.266C156.752 34.022 156.65 34.706 156.446 35.318C156.242 35.93 155.948 36.452 155.564 36.884C155.192 37.316 154.73 37.646 154.178 37.874C153.638 38.102 153.02 38.216 152.324 38.216ZM152.324 36.11C152.852 36.11 153.26 35.948 153.548 35.624C153.836 35.3 153.98 34.838 153.98 34.238V32.312C153.98 31.712 153.836 31.25 153.548 30.926C153.26 30.602 152.852 30.44 152.324 30.44C151.796 30.44 151.388 30.602 151.1 30.926C150.812 31.25 150.668 31.712 150.668 32.312V34.238C150.668 34.838 150.812 35.3 151.1 35.624C151.388 35.948 151.796 36.11 152.324 36.11ZM157.395 28.55H159.969L160.887 32.366L161.535 35.246H161.607L162.363 32.366L163.443 28.55H165.873L166.971 32.366L167.745 35.246H167.817L168.465 32.366L169.383 28.55H171.849L169.239 38H166.449L165.297 34.004L164.631 31.556H164.577L163.929 34.004L162.777 38H160.041L157.395 28.55ZM173.249 38V28.55H175.913V30.152H176.021C176.189 29.66 176.483 29.234 176.903 28.874C177.323 28.514 177.905 28.334 178.649 28.334C179.621 28.334 180.353 28.658 180.845 29.306C181.349 29.954 181.601 30.878 181.601 32.078V38H178.937V32.294C178.937 31.682 178.841 31.232 178.649 30.944C178.457 30.644 178.115 30.494 177.623 30.494C177.407 30.494 177.197 30.524 176.993 30.584C176.789 30.632 176.603 30.716 176.435 30.836C176.279 30.956 176.153 31.106 176.057 31.286C175.961 31.454 175.913 31.652 175.913 31.88V38H173.249ZM186.438 38C185.526 38 184.854 37.778 184.422 37.334C184.002 36.89 183.792 36.248 183.792 35.408V24.68H186.456V35.93H187.644V38H186.438ZM192.895 38.216C192.199 38.216 191.575 38.102 191.023 37.874C190.483 37.646 190.021 37.316 189.637 36.884C189.265 36.452 188.977 35.93 188.773 35.318C188.569 34.706 188.467 34.022 188.467 33.266C188.467 32.51 188.569 31.826 188.773 31.214C188.977 30.602 189.265 30.086 189.637 29.666C190.021 29.234 190.483 28.904 191.023 28.676C191.575 28.448 192.199 28.334 192.895 28.334C193.591 28.334 194.209 28.448 194.749 28.676C195.301 28.904 195.763 29.234 196.135 29.666C196.519 30.086 196.813 30.602 197.017 31.214C197.221 31.826 197.323 32.51 197.323 33.266C197.323 34.022 197.221 34.706 197.017 35.318C196.813 35.93 196.519 36.452 196.135 36.884C195.763 37.316 195.301 37.646 194.749 37.874C194.209 38.102 193.591 38.216 192.895 38.216ZM192.895 36.11C193.423 36.11 193.831 35.948 194.119 35.624C194.407 35.3 194.551 34.838 194.551 34.238V32.312C194.551 31.712 194.407 31.25 194.119 30.926C193.831 30.602 193.423 30.44 192.895 30.44C192.367 30.44 191.959 30.602 191.671 30.926C191.383 31.25 191.239 31.712 191.239 32.312V34.238C191.239 34.838 191.383 35.3 191.671 35.624C191.959 35.948 192.367 36.11 192.895 36.11ZM206.025 38C205.545 38 205.143 37.85 204.819 37.55C204.507 37.25 204.309 36.848 204.225 36.344H204.117C203.973 36.956 203.655 37.424 203.163 37.748C202.671 38.06 202.065 38.216 201.345 38.216C200.397 38.216 199.671 37.964 199.167 37.46C198.663 36.956 198.411 36.29 198.411 35.462C198.411 34.466 198.771 33.728 199.491 33.248C200.223 32.756 201.213 32.51 202.461 32.51H203.955V31.916C203.955 31.46 203.835 31.1 203.595 30.836C203.355 30.56 202.953 30.422 202.389 30.422C201.861 30.422 201.441 30.536 201.129 30.764C200.817 30.992 200.559 31.25 200.355 31.538L198.771 30.134C199.155 29.57 199.635 29.132 200.211 28.82C200.799 28.496 201.591 28.334 202.587 28.334C203.931 28.334 204.939 28.628 205.611 29.216C206.283 29.804 206.619 30.662 206.619 31.79V35.93H207.501V38H206.025ZM202.335 36.362C202.779 36.362 203.157 36.266 203.469 36.074C203.793 35.882 203.955 35.57 203.955 35.138V34.022H202.659C201.615 34.022 201.093 34.376 201.093 35.084V35.354C201.093 35.702 201.201 35.96 201.417 36.128C201.633 36.284 201.939 36.362 202.335 36.362ZM214.905 36.416H214.815C214.743 36.668 214.629 36.908 214.473 37.136C214.317 37.352 214.125 37.544 213.897 37.712C213.681 37.868 213.429 37.988 213.141 38.072C212.865 38.168 212.577 38.216 212.277 38.216C211.077 38.216 210.171 37.796 209.559 36.956C208.947 36.104 208.641 34.874 208.641 33.266C208.641 31.658 208.947 30.434 209.559 29.594C210.171 28.754 211.077 28.334 212.277 28.334C212.889 28.334 213.429 28.502 213.897 28.838C214.377 29.174 214.683 29.606 214.815 30.134H214.905V24.68H217.569V38H214.905V36.416ZM213.159 36.056C213.663 36.056 214.077 35.936 214.401 35.696C214.737 35.444 214.905 35.102 214.905 34.67V31.88C214.905 31.448 214.737 31.112 214.401 30.872C214.077 30.62 213.663 30.494 213.159 30.494C212.655 30.494 212.235 30.674 211.899 31.034C211.575 31.382 211.413 31.856 211.413 32.456V34.094C211.413 34.694 211.575 35.174 211.899 35.534C212.235 35.882 212.655 36.056 213.159 36.056Z" fill="#FCFAF9"/>
<path fill-rule="evenodd" clip-rule="evenodd" d="M86.252 22.645C86.9782 21.7562 88.2245 21.0737 89.2907 21C89.4694 22.215 88.9757 23.405 88.3232 24.2462C87.6257 25.15 86.422 25.8487 85.257 25.8125C85.0445 24.6487 85.5895 23.4512 86.252 22.645ZM89.6832 25.6812C91.0419 25.6812 92.4807 26.4262 93.5044 27.71C90.1482 29.5612 90.6919 34.3837 94.0832 35.6749C93.6169 36.7149 93.3932 37.1786 92.7919 38.0999C91.9532 39.3849 90.7719 40.9861 89.3057 40.9974C88.703 41.0037 88.3076 40.8213 87.8812 40.6246C87.3871 40.3966 86.8514 40.1495 85.9032 40.1549C84.9603 40.1595 84.416 40.4036 83.9151 40.6283C83.4778 40.8244 83.0735 41.0057 82.4657 40.9999C81.0008 40.9874 79.8808 39.5424 79.042 38.2574C76.6983 34.6662 76.4508 30.4499 77.897 28.2075C78.9258 26.615 80.5483 25.6837 82.072 25.6837C82.8841 25.6837 83.5386 25.9184 84.1623 26.142C84.73 26.3456 85.2722 26.54 85.8845 26.54C86.451 26.54 86.9168 26.3625 87.4249 26.1689C88.0345 25.9367 88.7049 25.6812 89.6832 25.6812Z" fill="#FCFAF9"/>
</g>
<defs>
<clipPath id="clip0_0_32">
<rect width="142" height="32" fill="white" transform="translate(77 15)"/>
</clipPath>
</defs>
</svg>
